<?xml version="1.0" encoding="utf-8"?>
<!-- Generator: Adobe Illustrator 20.0.0, SVG Export Plug-In . SVG Version: 6.00 Build 0)  -->
<svg version="1.1" id="レイヤー_1" xmlns="http://www.w3.org/2000/svg" xmlns:xlink="http://www.w3.org/1999/xlink" x="0px"
	 y="0px" viewBox="0 0 841.9 595.3" style="enable-background:new 0 0 841.9 595.3;" xml:space="preserve">
<style type="text/css">
	.st0{fill:#E95793;}
</style>
<g>
	<path class="st0" d="M420.6,265.9c0,0-6.6,5-5.8,13.4l3.9,1.4l1.9,3.6c0,0,8.9,0.4,12.7-10c0,0-1.3,11.4-13.9,12.6l-1.8-4.6
		l-4.9-1.2C412.8,281.1,411,271.2,420.6,265.9z"/>
	<path class="st0" d="M433,274.3c0,0,2.7,7.8,11,9.7l2.5-3.3l4-0.7c0,0,3.1-8.3-5.5-15.2c0,0,10.5,4.8,7.7,17.1l-5,0.3l-2.7,4.3
		C445,286.4,435,285.1,433,274.3z"/>
	<path class="st0" d="M444.7,265.1c0,0,8.3-0.1,12.6-7.5l-2.3-3.4l0.5-4c0,0-6.9-5.5-16.2,0.6c0,0,7.8-8.5,18.7-2l-1.2,4.8l3.2,3.9
		C460,257.5,455.6,266.5,444.7,265.1z"/>
	<path class="st0" d="M439.6,251.1c0,0,2.4-7.9-3.2-14.3l-4,1.2l-3.6-1.8c0,0-7.4,4.9-4.5,15.5c0,0-5.7-10,3.8-18.4l4.2,2.7l4.7-1.9
		C437.1,234.2,444.3,241.2,439.6,251.1z"/>
	<path class="st0" d="M424.7,251.6c0,0-6.8-4.8-14.6-1.4l-0.1,4.1l-2.8,2.9c0,0,2.4,8.6,13.4,9c0,0-11.3,2.3-16.3-9.3l3.8-3.2
		l-0.3-5C407.9,248.8,416.7,244.1,424.7,251.6z"/>
	<g>
		
			<ellipse transform="matrix(0.7064 -0.7078 0.7078 0.7064 -58.9631 377.4557)" class="st0" cx="425.5" cy="259.8" rx="1.2" ry="1.2"/>
		<polygon class="st0" points="426.2,260.4 430.2,261.2 426.4,259.8 		"/>
	</g>
	<g>
		
			<ellipse transform="matrix(0.4651 -0.8853 0.8853 0.4651 5.8178 519.4619)" class="st0" cx="432.7" cy="254.9" rx="1.1" ry="1.1"/>
		<polygon class="st0" points="432.4,255.7 432.7,259.3 432.9,255.7 		"/>
	</g>
	<g>
		
			<ellipse transform="matrix(0.8999 -0.4361 0.4361 0.8999 -73.6171 213.8301)" class="st0" cx="429" cy="267.3" rx="1.1" ry="1.1"/>
		<polygon class="st0" points="429.7,266.8 431.6,263.7 429.3,266.5 		"/>
	</g>
	<g>
		
			<ellipse transform="matrix(0.9911 -0.1331 0.1331 0.9911 -30.3645 59.429)" class="st0" cx="429.3" cy="256.8" rx="0.8" ry="0.8"/>
		<polygon class="st0" points="429.5,257.5 431.3,259.5 430,257 		"/>
	</g>
	<g>
		
			<ellipse transform="matrix(0.3867 -0.9222 0.9222 0.3867 19.0771 563.6927)" class="st0" cx="433.4" cy="267.5" rx="0.8" ry="0.8"/>
		<polygon class="st0" points="433.6,266.9 433,264.2 432.9,267 		"/>
	</g>
	<g>
		
			<ellipse transform="matrix(0.1236 -0.9923 0.9923 0.1236 112.9029 655.1872)" class="st0" cx="427.4" cy="263.7" rx="0.8" ry="0.8"/>
		<polygon class="st0" points="428,263.7 430.4,262.5 427.7,263.1 		"/>
	</g>
	<g>
		<ellipse transform="matrix(0.206 -0.9786 0.9786 0.206 95.6919 636.936)" class="st0" cx="440.3" cy="259.5" rx="1.2" ry="1.2"/>
		<polygon class="st0" points="439.4,259.4 435.6,260.9 439.6,260 		"/>
	</g>
	<g>
		
			<ellipse transform="matrix(0.9957 -9.312367e-02 9.312367e-02 0.9957 -23.0588 41.9001)" class="st0" cx="437.4" cy="268" rx="1.1" ry="1.1"/>
		<polygon class="st0" points="437.3,267.1 434.5,263.8 436.8,267.5 		"/>
	</g>
	<g>
		
			<ellipse transform="matrix(0.7581 -0.6522 0.6522 0.7581 -66.0759 350.0259)" class="st0" cx="438.7" cy="264.1" rx="0.8" ry="0.8"/>
		<polygon class="st0" points="438.3,263.6 435.7,262.9 438.1,264.2 		"/>
	</g>
	<g>
		<ellipse transform="matrix(0.858 -0.5136 0.5136 0.858 -69.8701 260.571)" class="st0" cx="436.4" cy="256.7" rx="0.8" ry="0.8"/>
		<polygon class="st0" points="435.9,257 434.7,259.5 436.5,257.3 		"/>
	</g>
</g>
</svg>
